<?xml version="1.0" encoding="UTF-8" standalone="no"?>
<!-- Creator: CorelDRAW X5 -->

<svg
   xmlns:dc="http://purl.org/dc/elements/1.1/"
   xmlns:cc="http://creativecommons.org/ns#"
   xmlns:rdf="http://www.w3.org/1999/02/22-rdf-syntax-ns#"
   xmlns:svg="http://www.w3.org/2000/svg"
   xmlns="http://www.w3.org/2000/svg"
   xmlns:sodipodi="http://sodipodi.sourceforge.net/DTD/sodipodi-0.dtd"
   xmlns:inkscape="http://www.inkscape.org/namespaces/inkscape"
   xml:space="preserve"
   width="3.1113095in"
   height="2.755631in"
   style="clip-rule:evenodd;fill-rule:evenodd;image-rendering:optimizeQuality;shape-rendering:geometricPrecision;text-rendering:geometricPrecision"
   viewBox="0 0 3111.3095 2755.631"
   id="svg4010"
   version="1.1"
   inkscape:version="0.91 r13725"
   sodipodi:docname="LogoBody.svg"><metadata
     id="metadata4112"><rdf:RDF><cc:Work
         rdf:about=""><dc:format>image/svg+xml</dc:format><dc:type
           rdf:resource="http://purl.org/dc/dcmitype/StillImage" /><dc:title></dc:title></cc:Work></rdf:RDF></metadata><sodipodi:namedview
     pagecolor="#ffffff"
     bordercolor="#666666"
     borderopacity="1"
     objecttolerance="10"
     gridtolerance="10"
     guidetolerance="10"
     inkscape:pageopacity="0"
     inkscape:pageshadow="2"
     inkscape:window-width="1366"
     inkscape:window-height="707"
     id="namedview4110"
     showgrid="false"
     fit-margin-top="0"
     fit-margin-left="0"
     fit-margin-right="0"
     fit-margin-bottom="0"
     inkscape:zoom="0.23838384"
     inkscape:cx="164.74643"
     inkscape:cy="14.49722"
     inkscape:window-x="0"
     inkscape:window-y="0"
     inkscape:window-maximized="1"
     inkscape:current-layer="svg4010" /><defs
     id="defs4012"><style
       type="text/css"
       id="style4014"><![CDATA[
    .str0 {stroke:#EDE8D9;stroke-width:3}
    .fil6 {fill:#59171A}
    .fil2 {fill:#5C87C4}
    .fil1 {fill:#87B0DE}
    .fil3 {fill:#8C3336}
    .fil7 {fill:#A69994}
    .fil4 {fill:#B3CFEB}
    .fil5 {fill:#C4BDB3}
    .fil0 {fill:#EDE8D9}
    .fil8 {fill:white}
   ]]></style></defs><g
     id="Layer_x0020_1"
     transform="translate(-2419.484,-2905.4492)"><metadata
       id="CorelCorpID_0Corel-Layer" /><path
       class="fil0"
       d="m 4156,5064 c 8,19 19,37 27,58 25,64 34,140 -5,199 -37,56 -113,89 -194,81 -17,-2 -64,-13 -70,-21 -20,-6 -47,-32 -57,-51 -41,-74 4,-159 48,-220 15,-20 31,-37 44,-59 30,-50 39,-104 30,-160 -7,-43 -19,-57 -23,-75 l 28,28 c 53,54 145,158 172,220 z m -617,-533 c -24,132 -14,470 -9,615 2,68 4,137 10,205 0,0 1,0 1,1 0,0 1,0 1,1 6,3 13,5 14,15 1,10 -7,12 -14,17 l 17,274 c 11,3 697,1 785,1 30,0 85,3 112,-1 l 18,-275 c -8,-5 -16,-7 -15,-17 1,-13 15,-14 17,-16 7,-140 12,-277 16,-418 2,-70 1,-142 0,-212 -1,-63 -3,-141 -15,-202 l -15,-8 c -11,-5 -36,-15 -46,-17 -6,10 -24,27 -33,36 -6,6 -12,11 -18,17 -4,4 -6,4 -10,8 -3,2 -5,5 -8,8 -9,7 -14,10 -21,15 -7,5 -14,9 -21,14 -12,8 -30,18 -45,25 -156,72 -329,77 -485,3 -41,-19 -56,-31 -88,-54 -18,-13 -40,-33 -56,-48 -4,-4 -12,-14 -17,-16 -24,7 -49,21 -72,30 z"
       id="path4018"
       inkscape:connector-curvature="0"
       style="fill:#ede8d9" /><path
       class="fil0"
       d="m 4551,3263 c 9,8 25,17 44,34 45,42 68,104 58,164 -5,27 -8,33 -26,50 -81,74 -210,99 -325,65 -83,-25 -147,-78 -171,-146 -14,-38 -13,-86 4,-122 3,-13 26,-49 34,-54 2,-5 5,-7 9,-11 16,-16 14,-12 30,-26 36,-30 134,-65 177,-59 2,-1 2,-1 7,-2 27,-3 70,5 95,9 22,4 52,16 67,23 l 0,60 c -1,13 -5,-2 -3,15 z m -1400,14 0,5 c 4,-2 25,2 32,4 2,0 9,2 10,3 -6,1 -6,1 -14,1 l 0,2 11,0 0,9 c 6,0 12,1 16,1 3,0 11,-1 18,-1 0,7 -2,6 19,9 13,2 15,0 28,0 -4,-9 -8,0 -2,-5 2,-1 4,2 12,2 -7,3 -4,2 -3,3 45,0 15,-1 33,5 l 3,1 c 5,1 4,1 10,0 4,-9 9,-22 15,-32 4,-7 14,-22 19,-26 6,-14 45,-44 63,-54 40,-22 115,-51 157,-45 0,0 1,0 1,0 1,0 -1,-1 11,-1 5,0 10,0 14,0 8,0 16,1 25,1 17,2 31,5 45,7 30,5 56,18 77,27 -4,6 -3,6 -3,16 0,6 0,12 0,19 1,6 4,-5 4,4 0,3 -1,-3 -1,4 1,0 33,13 46,20 17,9 28,16 41,27 8,7 29,23 34,33 6,13 10,36 11,52 2,52 -18,98 -54,136 -9,9 -34,29 -35,31 2,5 0,1 2,2 2,1 2,2 5,2 0,0 5,-1 6,-1 l 0,10 c 6,1 4,2 8,2 5,1 7,0 11,1 l 16,5 c 9,2 12,3 20,6 0,0 1,0 1,0 l 15,4 c 12,-2 22,1 33,4 17,4 18,0 21,5 l 12,0 0,-7 c 8,0 16,1 24,3 11,3 22,4 33,7 l 22,5 c 0,0 1,0 1,0 1,0 2,1 3,1 l 31,6 c 23,6 22,-1 23,8 l 23,0 c 2,5 7,3 15,5 l 24,6 c 2,0 6,1 8,1 0,0 6,1 6,1 l 19,3 c 2,0 4,0 6,1 0,0 1,0 1,1 0,0 1,0 1,1 0,0 1,0 1,1 7,3 17,2 23,6 8,4 21,3 31,5 0,0 1,0 1,0 0,0 1,0 1,0 7,2 14,2 22,3 10,2 11,5 25,6 11,1 9,-2 10,5 l 23,0 c 2,4 6,3 14,6 5,2 11,2 17,3 l 38,8 c 0,0 1,0 1,0 l 9,3 c 0,0 1,0 1,0 l 64,13 c 0,0 1,0 1,0 l 23,5 c 0,0 1,0 1,0 0,0 1,0 1,0 0,0 1,0 1,0 l 12,3 c 2,1 4,1 5,1 l 57,11 c 0,0 1,0 1,0 0,0 1,0 1,0 l 90,18 c 0,0 1,0 1,0 l 30,8 c 5,2 0,-2 3,2 l 23,0 c 1,10 10,1 23,8 l 12,3 c 1,0 7,1 8,1 l 2,1 c 12,5 22,3 34,7 l 3,1 c 7,2 13,2 21,2 3,-5 0,-1 3,0 0,0 0,0 1,0 l 2,0 c 1,2 1,0 0,2 -1,2 0,-1 -2,4 7,-5 2,0 6,-3 2,-16 -29,-76 29,-149 3,-4 12,-13 13,-15 8,-10 24,-22 34,-29 12,-8 27,-16 42,-23 19,-9 83,-29 109,-24 l 3,-1 c 7,-1 9,-1 16,-1 7,0 13,0 19,1 13,1 24,3 36,4 32,6 49,14 74,24 l 1,71 c 2,4 98,73 63,180 -10,30 -29,52 -30,57 -2,6 -1,2 1,3 5,-5 12,-9 18,-14 18,-14 35,-34 47,-53 19,-31 23,-57 22,-101 3,4 18,6 23,7 6,1 8,2 12,3 l 38,8 c 5,1 7,3 12,3 12,2 12,0 27,4 17,5 34,7 51,11 6,1 6,2 12,4 6,1 8,0 14,2 6,2 1,1 5,2 11,2 9,-6 9,-11 0,-9 -1,-37 0,-40 4,-20 -22,-77 -31,-94 -57,-103 -166,-192 -274,-261 -14,-9 -45,-3 -63,0 -92,10 -214,38 -294,64 -3,-60 -9,-92 -40,-147 -65,-116 -189,-212 -309,-289 -8,-5 -57,-35 -64,-38 -8,-3 -68,19 -80,23 -125,44 -281,115 -352,210 -8,10 -12,20 -19,30 -15,-16 -12,-37 -85,-96 -32,-26 -72,-51 -116,-73 -57,-29 -173,-78 -241,-96 -13,-3 -25,7 -34,12 -21,11 -40,22 -59,34 -94,57 -191,129 -255,209 -14,17 -26,34 -37,53 -6,11 -28,50 -26,61 z"
       id="path4020"
       inkscape:connector-curvature="0"
       style="fill:#ede8d9" /><path
       class="fil0"
       d="m 2461,3521 c 1,2 1,2 4,4 l 4,2 c 0,0 1,0 1,0 l 26,4 c 9,1 6,3 12,5 l 5,1 c 7,0 17,0 25,0 l 3,3 c 0,0 3,3 8,4 4,0 8,-1 15,0 17,2 31,4 48,8 17,4 9,-1 20,3 14,4 13,6 17,4 5,-6 11,-19 16,-26 6,-9 15,-15 20,-24 -2,-2 -4,2 0,-4 l 12,-14 c 8,-9 27,-24 38,-31 76,-49 176,-58 262,-21 24,10 73,40 81,60 -6,-2 -3,-1 -6,-3 -3,-2 -17,-16 -43,-30 -13,-7 -39,-19 -57,-23 4,5 4,7 3,13 -1,6 -1,12 0,18 21,2 48,8 65,14 16,6 44,17 53,25 9,7 24,31 30,43 8,16 14,35 16,54 3,3 1,1 3,5 3,5 3,4 4,10 5,0 8,0 12,-1 l 2,3 c 6,5 6,-1 8,7 l 23,0 c 1,11 7,0 28,6 l 5,2 c 5,1 8,1 13,1 l 1,7 c 10,0 19,0 29,0 12,0 16,1 27,1 -2,5 -4,4 -5,6 2,0 9,0 10,0 8,1 3,-2 6,3 4,0 20,0 22,0 6,1 1,0 3,2 3,3 -2,4 7,4 1,-7 -2,-2 5,-4 4,7 -1,4 6,6 2,1 6,1 11,1 l 4,7 52,2 c 0,0 0,1 -1,1 0,0 0,1 -1,1 l -2,3 c 7,0 12,1 16,1 5,0 11,-1 18,-1 -2,2 -4,5 -7,6 22,0 16,2 22,5 7,3 32,2 39,3 7,1 1,-1 4,2 10,9 14,4 27,7 l 7,2 c 2,0 2,0 4,1 l 3,1 c 31,10 28,4 45,6 6,1 8,2 14,2 l -2,2 c -4,4 -5,5 -12,5 l 0,2 c 9,0 20,0 28,0 l 21,2 c 9,2 3,5 20,5 11,0 16,0 26,1 l 0,4 c -6,-1 -9,-2 -14,-3 5,1 5,2 10,3 17,4 8,1 19,3 1,0 1,0 2,0 0,0 1,0 1,0 0,0 1,0 1,0 5,1 7,2 12,0 0,0 0,1 0,1 3,4 2,2 4,3 5,3 4,-1 5,6 l 23,0 c 1,6 -2,4 5,4 31,1 16,1 29,4 3,1 6,0 10,0 3,3 3,7 4,7 11,0 20,-3 33,-3 0,0 -1,1 -1,1 l -2,3 c 12,0 6,-1 9,5 l 5,-1 c -28,16 -65,29 -107,35 -52,7 -86,2 -134,-8 l 2,6 c -5,0 -21,3 -25,5 -31,13 -34,5 -45,10 0,0 -1,0 -1,1 0,0 -2,1 -3,1 -2,1 -2,1 -5,1 -6,1 -2,-1 -5,1 3,6 43,21 52,24 69,25 142,28 213,6 59,-18 108,-51 144,-87 6,-6 32,-32 34,-41 -2,-6 -12,-5 -12,-5 -4,1 5,-3 -2,2 -6,4 -19,4 -26,3 0,-1 1,-2 2,0 0,0 0,0 0,0 0,2 -1,-1 -4,7 -5,0 -6,0 -11,1 0,0 -4,1 -5,1 -1,0 -1,1 -2,1 0,0 -1,0 -2,1 1,-8 2,-7 7,-11 l 24,-22 c 20,-20 37,-43 52,-67 6,-10 17,-34 24,-38 13,30 34,61 54,87 7,9 16,17 22,26 l -7,3 c -5,2 -9,1 -16,1 -8,0 -14,-2 -18,3 1,8 17,24 23,31 9,10 18,19 27,28 10,10 51,43 68,48 -2,-7 -4,-2 -1,-7 l 2,-4 c 7,-1 14,-2 21,-4 18,-3 6,5 37,-5 5,-2 13,-2 19,-3 -2,-4 -4,-4 -9,-6 -17,-5 -49,-17 -62,-26 -3,-2 -2,-1 -4,-3 9,2 30,11 41,15 89,29 180,23 268,-7 l 19,-7 c 15,-6 8,-4 18,-9 7,-3 11,-6 16,-10 0,12 -5,24 -7,35 -1,7 -3,22 -7,28 l -3,3 c 5,2 2,5 -1,16 l -14,49 c -4,12 -22,57 -22,63 0,4 1,5 2,8 1,-1 56,11 60,12 l 2,1 c 11,4 24,4 31,5 6,1 3,2 10,3 9,2 17,2 27,5 23,7 16,5 45,5 l 3,5 c 1,1 0,2 1,4 13,0 18,1 28,3 l 14,4 c 3,1 4,1 7,2 13,3 17,2 30,6 l 18,4 0,-39 c 1,-11 -4,-23 -5,-35 7,3 29,21 39,28 62,41 120,62 199,78 21,4 43,5 66,7 64,6 126,-8 135,-7 3,-2 1,-1 6,-3 2,-1 3,-1 6,-1 4,-1 7,-1 11,-2 71,-15 130,-49 138,-50 1,1 5,3 7,4 3,2 2,1 4,2 0,0 1,0 1,1 0,0 1,0 1,1 18,9 14,7 14,14 l 6,0 c 13,-4 60,-55 66,-62 40,-47 72,-104 84,-163 3,-15 11,-89 4,-107 0,0 0,0 -1,-1 0,-1 0,-1 -1,-1 -1,3 0,31 0,40 0,4 3,13 -9,11 -4,-1 1,0 -5,-2 -6,-2 -7,-1 -14,-2 -5,-1 -6,-2 -12,-4 -17,-3 -34,-5 -51,-11 -14,-4 -14,-2 -27,-4 -5,-1 -7,-2 -12,-3 l -38,-8 c -4,-1 -6,-2 -12,-3 -5,-1 -20,-2 -23,-7 1,43 -3,70 -22,101 -12,19 -29,38 -47,53 -6,5 -14,8 -18,14 -2,-2 -3,2 -1,-3 -2,1 -1,1 -3,2 -1,1 -2,2 -3,2 -10,10 -28,17 -43,23 -101,40 -225,23 -301,-40 -23,-19 -42,-43 -54,-70 -2,-4 -3,-8 -6,-12 -4,3 1,-1 -6,3 2,-4 1,-1 2,-4 1,-2 1,0 0,-2 l -2,0 c 0,0 0,0 -1,0 -3,-1 -1,-5 -3,0 -9,0 -14,0 -21,-2 l -3,-1 c -13,-4 -23,-2 -34,-7 l -2,-1 c 0,0 -7,-1 -8,-1 l -12,-3 c -13,-6 -21,2 -23,-8 l -23,0 c -2,-4 2,0 -3,-2 l -30,-8 c 0,0 -1,0 -1,0 l -90,-18 c 0,0 -1,0 -1,0 0,0 -1,0 -1,0 l -57,-11 c -2,0 -3,-1 -5,-1 l -12,-3 c 0,0 -1,0 -1,0 0,0 -1,0 -1,0 0,0 -1,0 -1,0 l -23,-5 c 0,0 -1,0 -1,0 l -64,-13 c 0,0 -1,0 -1,0 l -9,-3 c 0,0 -1,0 -1,0 l -38,-8 c -6,-1 -12,-2 -17,-3 -8,-3 -12,-1 -14,-6 l -23,0 c -1,-7 1,-4 -10,-5 -14,-1 -14,-4 -25,-6 -9,-2 -15,-1 -22,-3 0,0 -1,0 -1,0 0,0 -1,0 -1,0 -9,-2 -22,-1 -31,-5 -7,-3 -16,-2 -23,-6 0,0 -1,0 -1,-1 0,0 -1,0 -1,-1 0,0 -1,0 -1,-1 -2,-1 -3,-1 -6,-1 l -19,-3 c 0,0 -6,-1 -6,-1 -2,0 -6,-1 -8,-1 l -24,-6 c -8,-2 -13,0 -15,-5 l -23,0 c -1,-9 0,-2 -23,-8 l -31,-6 c -1,0 -2,-1 -3,-1 0,0 -1,0 -1,0 l -22,-5 c -11,-3 -22,-4 -33,-7 -7,-2 -15,-3 -24,-3 l 0,7 -12,0 c -3,-5 -4,-1 -21,-5 -11,-3 -21,-6 -33,-4 l -15,-4 c 0,0 -1,0 -1,0 -7,-3 -11,-4 -20,-6 l -16,-5 c -4,-1 -7,0 -11,-1 -4,-1 -2,-2 -8,-2 l 0,-10 c -1,0 -6,1 -6,1 -3,0 -3,-1 -5,-2 -1,-1 0,3 -2,-2 -8,4 -16,10 -24,15 -7,4 -16,8 -24,12 -17,8 -34,14 -54,19 -82,22 -183,13 -254,-26 -18,-10 -73,-46 -78,-63 -17,-9 -37,-56 -42,-78 -8,-34 -5,-66 6,-98 -5,1 -4,1 -10,0 l -3,-1 c -18,-6 12,-5 -33,-5 0,-1 -4,0 3,-3 -8,0 -10,-3 -12,-2 -6,5 -2,-4 2,5 -13,0 -15,2 -28,0 -22,-4 -19,-2 -19,-9 -7,0 -14,1 -18,1 -4,0 -10,-1 -16,-1 l 0,-9 -11,0 0,-2 c 9,0 8,0 14,-1 -1,0 -8,-2 -10,-3 -7,-2 -28,-6 -32,-4 l 0,-5 c -2,1 -1,1 -2,3 0,0 -1,3 -1,3 -1,2 -1,4 -2,6 -2,6 -6,37 -8,39 -4,-3 -2,-2 -7,-3 -2,4 -3,2 -10,0 -112,-34 -272,-69 -389,-73 -1,-2 -3,3 0,-3 -8,3 -36,23 -43,29 -7,6 -13,9 -20,14 -7,5 -12,10 -19,15 -13,10 -26,20 -38,31 -45,41 -54,47 -100,102 -10,12 -50,66 -51,80 z"
       id="path4022"
       inkscape:connector-curvature="0"
       style="fill:#ede8d9" /><path
       class="fil1"
       d="m 2436,3650 c -3,11 9,57 13,68 8,22 16,39 26,58 4,3 0,-1 4,3 l 5,7 c 14,23 30,40 49,61 9,10 23,22 34,30 l 28,20 c 3,2 3,0 3,4 1,9 -7,6 -7,6 l -2,0 c -4,1 -21,4 -26,6 -8,5 0,3 -11,5 l -9,3 c 5,9 50,38 61,45 12,7 23,13 35,19 6,3 32,14 35,16 10,2 22,8 32,11 135,45 270,37 390,-32 33,-19 47,-28 74,-49 5,-4 19,-15 24,-18 6,45 3,61 19,108 3,9 10,23 11,31 5,-2 8,-4 15,-4 3,6 7,14 11,21 4,7 10,14 13,22 5,-1 9,-1 15,-1 7,0 11,1 16,3 25,8 52,10 78,16 3,1 4,0 7,1 6,2 4,-1 4,5 6,0 12,-1 16,-1 l 3,1 c 14,4 72,13 81,17 6,2 -2,1 6,2 2,0 6,0 8,0 l -23,0 c 8,8 12,3 34,10 3,1 -4,0 4,1 6,1 14,0 20,-1 4,-1 6,0 13,0 -6,2 -3,-2 -4,6 10,0 37,1 44,3 8,3 21,3 28,6 5,2 4,1 10,3 12,3 68,15 77,15 -6,0 -8,-1 -11,4 3,5 -3,-1 1,1 l 2,1 c 2,1 15,2 23,5 5,2 0,0 5,2 6,1 8,1 13,2 l 24,5 c 12,2 7,3 25,5 0,0 5,1 6,1 7,2 8,5 18,4 8,0 9,-1 14,-1 5,0 7,1 14,1 11,1 34,8 47,10 -7,0 -13,-1 -18,3 8,3 52,11 65,14 18,4 36,6 54,11 l 27,6 c 6,2 7,1 15,3 7,1 7,2 11,3 7,2 16,2 28,5 l 137,29 c 0,0 1,0 1,0 9,3 16,2 25,5 0,0 4,1 4,1 24,6 4,-2 35,1 11,1 16,5 26,6 0,12 4,6 37,15 10,3 17,2 30,6 l 59,13 c 31,5 20,2 57,-21 l 114,-73 c 17,-11 34,-23 50,-36 6,-5 13,-13 19,-16 7,3 15,4 11,10 l 5,0 c 19,-18 47,-61 59,-89 17,-39 24,-71 27,-116 3,1 33,25 37,28 14,11 27,19 42,28 77,45 207,71 303,56 23,-3 42,-10 62,-13 7,-3 17,-5 24,-8 l 18,-7 c 4,-2 2,-1 4,-3 -14,0 -4,-1 -22,-11 l -12,-7 c -2,-1 -2,-1 -3,-2 -7,-5 -7,-4 -6,-10 -9,3 -7,0 -18,-5 0,0 -1,0 -1,0 0,0 -1,0 -1,0 -5,-2 0,-1 -8,-2 -10,-1 -71,13 -135,7 -23,-2 -45,-3 -66,-7 -79,-15 -137,-37 -199,-78 -10,-6 -32,-25 -39,-28 1,12 6,24 5,35 5,5 4,23 4,30 0,9 -1,19 -2,29 -7,49 -25,83 -56,122 -3,4 -6,9 -7,8 0,0 -1,1 -1,1 -8,-1 -2,-1 -11,-3 -5,-1 -7,-1 -11,-1 -4,-1 -2,0 -6,-1 -17,-5 -11,-2 -20,-4 0,0 -1,0 -1,0 l -13,-4 c -19,-4 -18,-3 -41,-9 -17,-4 -15,0 -31,-6 -5,-2 -3,-1 -10,-2 l -28,-6 c -9,-2 -15,-3 -18,-3 0,0 -1,0 -1,0 0,0 -1,0 -1,0 -17,-6 -3,1 -27,-7 -6,-2 -13,-2 -21,-3 l -30,-7 c -10,-3 -44,-6 -51,-12 l -46,35 c -128,88 -356,95 -511,66 -47,-9 -92,-23 -129,-41 -41,-20 -69,-41 -96,-67 -40,-38 -71,-92 -91,-144 -5,-13 -14,-48 -19,-57 -6,2 -1,-1 -3,4 l -2,5 c -4,-2 -2,-1 -4,-4 -1,-1 0,-1 -1,-3 -20,0 -18,-3 -29,-5 l -43,-9 c -10,-2 -5,-2 -13,-4 -8,-1 -30,-5 -36,-7 l -106,-22 c -9,-2 -20,-3 -28,-6 -22,-7 -12,-2 -28,-6 -5,-1 -8,-2 -14,-3 -6,-1 -38,-8 -45,-10 l -3,-1 c 0,0 -1,0 -1,0 -12,-2 -4,0 -22,-4 l -43,-8 c -10,-2 -5,-2 -12,-4 -3,-1 -6,0 -13,-1 -8,-1 -9,-1 -6,-7 -23,7 -40,17 -70,22 -28,5 -58,8 -88,6 -49,-3 -111,-22 -136,-44 -6,-6 -9,-7 -16,-12 -74,-59 -61,-84 -76,-107 -4,3 -2,2 -6,1 0,0 -5,-1 -6,-1 -1,0 -7,-2 -7,-2 l -43,-9 c -10,-1 -15,-4 -26,-5 l -12,-3 c -16,-6 -13,-2 -27,-5 l -12,-4 c -5,-1 -9,-1 -14,-2 -8,-2 -40,-10 -48,-10 l -1,35 z"
       id="path4024"
       inkscape:connector-curvature="0"
       style="fill:#87b0de" /><path
       class="fil2"
       d="m 3224,4054 c 39,84 90,142 164,202 26,21 66,49 94,68 48,31 170,103 174,147 4,10 52,53 61,61 18,15 49,36 77,48 120,53 324,56 443,-1 36,-17 86,-48 111,-74 8,-9 25,-22 30,-33 4,-46 103,-107 145,-137 39,-28 127,-93 153,-131 l -5,0 c 4,-6 -4,-7 -11,-10 -6,4 -13,12 -19,16 -16,13 -33,24 -50,36 l -114,73 c -37,23 -26,27 -57,21 l -59,-13 c -13,-4 -20,-3 -30,-6 -33,-8 -37,-3 -37,-15 -10,-1 -15,-5 -26,-6 -31,-3 -11,6 -35,-1 0,0 -4,-1 -4,-1 -10,-4 -16,-3 -25,-5 0,0 -1,0 -1,0 l -137,-29 c -12,-3 -21,-3 -28,-5 -5,-1 -4,-2 -11,-3 -7,-1 -8,0 -15,-3 l -27,-6 c -17,-6 -36,-7 -54,-11 -12,-3 -57,-11 -65,-14 4,-3 11,-3 18,-3 -13,-2 -37,-10 -47,-10 -7,0 -10,-1 -14,-1 -5,0 -7,1 -14,1 -10,0 -11,-2 -18,-4 0,0 -5,-1 -6,-1 -19,-2 -13,-3 -25,-5 l -24,-5 c -6,-1 -7,-1 -13,-2 -5,-1 0,0 -5,-2 -7,-2 -21,-4 -23,-5 l -2,-1 c -4,-3 1,3 -1,-1 2,-4 5,-3 11,-4 -8,-1 -64,-13 -77,-15 -5,-1 -5,-1 -10,-3 -7,-2 -20,-3 -28,-6 -7,-2 -34,-3 -44,-3 1,-7 -3,-4 4,-6 -7,0 -9,-1 -13,0 -6,2 -13,2 -20,1 -8,-1 -1,0 -4,-1 -22,-7 -26,-2 -34,-10 l 23,0 c -2,0 -5,0 -8,0 -8,-2 -1,0 -6,-2 -8,-3 -67,-13 -81,-17 l -3,-1 c -4,-1 -9,1 -16,1 -1,-6 2,-3 -4,-5 -3,-1 -4,-1 -7,-1 -26,-6 -52,-9 -78,-16 -5,-1 -8,-3 -16,-3 -6,0 -10,0 -15,1 -3,-7 -8,-14 -13,-22 -4,-7 -8,-15 -11,-21 -7,0 -10,2 -15,4 z"
       id="path4026"
       inkscape:connector-curvature="0"
       style="fill:#5c87c4" /><path
       class="fil0"
       d="m 4517,4540 10,96 c 2,33 4,67 5,100 5,161 -2,350 -11,513 -2,32 -6,71 -5,102 5,3 16,5 15,17 0,11 -9,12 -18,16 l -19,275 372,0 c -1,-18 -15,-83 -19,-105 -14,-69 -66,-227 -88,-285 -11,-27 -23,-64 -37,-89 -7,-13 -13,-29 -19,-43 -11,-24 -94,-209 -97,-220 5,3 2,0 5,5 1,1 2,4 3,6 l 72,138 c 5,10 21,44 27,50 24,-8 130,-70 149,-82 21,-13 118,-78 134,-94 -4,-14 -81,-102 -96,-119 -41,-44 -66,-67 -111,-107 -12,-11 -25,-20 -38,-30 -7,-6 -4,-5 -23,-19 -12,-8 -34,-26 -48,-35 -57,-36 -74,-48 -141,-83 -22,-11 -20,-11 -22,-8 z"
       id="path4028"
       inkscape:connector-curvature="0"
       style="fill:#ede8d9" /><path
       class="fil3"
       d="m 3960,3728 c -2,9 -28,35 -34,41 -37,37 -86,70 -144,87 -71,21 -144,19 -213,-6 -9,-3 -48,-19 -52,-24 -14,-4 -59,-37 -65,-44 0,12 6,38 9,52 4,17 9,35 12,51 5,9 14,44 19,57 20,51 50,105 91,144 28,26 55,47 96,67 37,18 82,32 129,41 155,29 383,23 511,-66 l 46,-35 c 33,-29 61,-68 82,-106 4,-8 17,-37 21,-40 0,-7 19,-51 22,-63 l 14,-49 c 3,-11 6,-14 1,-16 -10,9 -54,29 -74,36 -64,21 -131,25 -197,6 -18,-5 -70,-24 -76,-32 -16,-5 -57,-38 -68,-48 -9,-10 -18,-18 -27,-28 -6,-7 -22,-23 -23,-31 -11,-6 -32,-48 -36,-60 l -11,18 c -6,11 -24,44 -33,49 z"
       id="path4030"
       inkscape:connector-curvature="0"
       style="fill:#8c3336" /><path
       class="fil0"
       d="m 3182,5659 339,0 -22,-274 c -2,-4 -14,-4 -15,-16 -1,-9 6,-15 14,-16 0,-31 -4,-67 -6,-97 -2,-33 -3,-67 -5,-100 -3,-66 -6,-134 -6,-200 0,-68 -1,-135 1,-203 1,-33 3,-66 5,-99 1,-15 11,-87 9,-94 l 0,-7 c -8,3 -61,33 -68,37 l -48,30 -77,55 c -73,54 -157,142 -210,206 -7,9 -42,52 -45,59 69,54 130,92 209,137 23,13 52,30 78,41 4,-4 22,-39 26,-47 10,-20 71,-133 78,-144 -10,27 -62,139 -78,173 -46,99 -74,167 -108,265 -17,51 -28,94 -42,142 -4,15 -9,34 -12,49 -5,24 -18,82 -19,103 z"
       id="path4032"
       inkscape:connector-curvature="0"
       style="fill:#ede8d9" /><path
       class="fil3"
       d="m 4175,3272 c -3,5 -21,18 -30,27 l -8,7 c 0,0 -1,1 -1,1 0,0 -1,1 -1,1 -17,36 -18,84 -4,122 24,69 88,121 171,146 115,35 244,9 325,-65 18,-16 21,-22 26,-50 11,-60 -13,-122 -58,-164 -18,-17 -35,-27 -44,-34 -11,-5 -20,-11 -32,-17 -10,-5 -24,-9 -33,-14 -15,-3 -29,-8 -44,-11 -16,-3 -29,-5 -46,-6 -154,-4 -200,50 -221,57 z"
       id="path4034"
       inkscape:connector-curvature="0"
       style="fill:#8c3336" /><path
       class="fil3"
       d="m 3364,3358 c -3,10 -8,20 -11,31 -3,11 -5,22 -5,33 -2,27 3,44 10,69 4,16 59,53 78,63 71,39 172,48 254,26 20,-5 37,-11 54,-19 8,-4 17,-8 24,-12 8,-5 15,-10 24,-15 1,-2 26,-22 35,-31 36,-37 56,-84 54,-136 -1,-16 -5,-39 -11,-52 -4,-10 -25,-27 -34,-33 -14,-11 -24,-18 -41,-27 -13,-7 -45,-20 -46,-20 -13,-3 -25,-7 -39,-10 -14,-3 -28,-5 -40,-7 l -56,-2 c -10,3 -34,4 -48,6 -66,12 -123,41 -164,83 -26,26 -25,36 -38,54 z"
       id="path4036"
       inkscape:connector-curvature="0"
       style="fill:#8c3336" /><path
       class="fil3"
       d="m 4870,3588 c -1,2 -10,12 -13,15 -58,73 -27,133 -29,149 3,3 5,8 6,12 12,26 31,51 54,70 76,62 200,80 301,40 14,-6 33,-13 43,-23 1,-1 2,-2 3,-2 2,-2 1,-1 3,-2 1,-5 20,-27 30,-57 35,-107 -61,-177 -63,-180 -6,-3 -4,-3 -9,-6 -26,-19 -59,-31 -61,-33 -11,-3 -21,-7 -32,-10 -11,-3 -21,-4 -32,-7 -44,-3 -72,-6 -115,4 -17,4 -31,8 -46,13 -15,6 -28,14 -40,18 z"
       id="path4038"
       inkscape:connector-curvature="0"
       style="fill:#8c3336" /><path
       class="fil3"
       d="m 2884,3476 c -2,1 0,0 -4,2 -4,1 0,0 -3,1 -50,12 -77,19 -120,52 -20,15 -16,15 -30,27 -5,7 -11,15 -17,23 -17,27 -26,52 -26,85 0,21 5,42 13,61 11,26 18,29 29,47 25,22 88,41 136,44 30,2 60,0 88,-6 30,-6 46,-15 70,-22 2,-2 19,-11 23,-13 65,-40 97,-95 94,-165 -2,-19 -8,-37 -16,-54 -6,-12 -21,-36 -30,-43 -10,-7 -38,-19 -53,-25 -18,-6 -44,-12 -65,-14 -16,-1 -30,-2 -47,-2 -13,0 -31,4 -43,3 z"
       id="path4040"
       inkscape:connector-curvature="0"
       style="fill:#8c3336" /><path
       class="fil4"
       d="m 3021,3788 c -3,6 -2,6 6,7 7,1 10,0 13,1 7,2 3,2 12,4 l 43,8 c 18,4 10,2 22,4 0,0 1,0 1,0 l 3,1 c 7,2 38,10 45,10 6,1 9,1 14,3 16,5 6,-1 28,6 8,3 19,4 28,6 l 106,22 c 6,2 28,6 36,7 9,1 3,1 13,4 l 43,9 c 11,2 9,5 29,5 1,2 0,2 1,3 2,4 1,2 4,4 l 2,-5 c 2,-5 -3,-2 3,-4 -3,-16 -8,-34 -12,-51 -3,-13 -9,-39 -9,-52 6,7 51,39 65,44 3,-3 -1,0 5,-1 3,-1 3,-1 5,-1 1,0 2,-1 3,-1 0,0 1,0 1,-1 11,-5 14,3 45,-10 4,-2 20,-5 25,-5 l -2,-6 c -35,-8 -75,-27 -97,-42 11,4 22,10 34,15 37,15 80,26 124,28 81,4 110,-7 175,-27 -4,-6 2,-5 -9,-5 l 2,-3 c 0,0 1,-1 1,-1 -13,0 -21,3 -33,3 0,0 -1,-4 -4,-7 -4,0 -6,0 -10,0 -13,-3 2,-3 -29,-4 -7,0 -4,2 -5,-4 l -23,0 c -1,-7 0,-2 -5,-6 -2,-1 -1,0 -4,-3 0,0 0,-1 0,-1 -5,2 -7,2 -12,0 0,0 -1,0 -1,0 0,0 -1,0 -1,0 -1,0 -1,0 -2,0 -11,-2 -2,1 -19,-3 -5,-1 -6,-2 -10,-3 6,1 8,2 14,3 l 0,-4 c -9,-2 -14,-1 -26,-1 -17,0 -11,-3 -20,-5 l -21,-2 c -8,-1 -19,0 -28,0 l 0,-2 c 7,0 8,-1 12,-5 l 2,-2 c -6,0 -8,-1 -14,-2 -17,-2 -14,4 -45,-6 l -3,-1 c -3,-1 -2,0 -4,-1 l -7,-2 c -13,-3 -18,2 -27,-7 -4,-3 3,-1 -4,-2 -7,-1 -32,0 -39,-3 -7,-3 -1,-5 -22,-5 3,-1 5,-3 7,-6 -7,0 -12,0 -18,1 -4,0 -9,-1 -16,-1 l 2,-3 c 0,0 0,-1 1,-1 0,0 0,-1 1,-1 l -52,-2 -4,-7 c -5,0 -9,0 -11,-1 -8,-2 -2,1 -6,-6 -7,2 -4,-3 -5,4 -9,0 -4,-1 -7,-4 -2,-2 3,0 -3,-2 -3,-1 -18,0 -22,0 -3,-5 2,-2 -6,-3 -1,0 -8,0 -10,0 1,-2 3,-1 5,-6 -12,0 -15,-1 -27,-1 -10,0 -19,0 -29,0 l -1,-7 c -6,0 -9,0 -13,-1 l -5,-2 c -21,-6 -27,5 -28,-6 l -23,0 c -2,-8 -2,-2 -8,-7 l -2,-3 c -3,1 -6,1 -12,1 0,-5 -1,-5 -4,-10 -2,-4 0,-2 -3,-5 3,70 -29,125 -94,165 -4,2 -21,11 -23,13 z"
       id="path4042"
       inkscape:connector-curvature="0"
       style="fill:#b3cfeb" /><path
       class="fil1"
       d="m 3092,5260 c -10,6 -18,11 -35,6 -3,-1 -7,-2 -9,-3 -2,-1 -1,0 -3,-2 -30,-23 -11,-64 18,-60 32,4 28,41 9,46 -17,4 -25,-6 -24,-17 1,-15 9,-15 24,-13 2,6 6,15 -1,19 -12,7 -14,-2 -13,-9 3,2 3,4 7,5 3,-4 3,-3 0,-7 -7,0 -9,4 -8,10 12,12 26,-5 17,-17 -8,-12 -25,-7 -32,3 -10,16 1,46 39,39 16,-3 5,-2 10,2 z m -57,111 c 2,2 24,51 27,58 19,37 43,73 69,106 8,10 33,43 41,48 3,-5 23,-92 27,-107 17,-63 42,-142 67,-203 l 39,-97 c -62,-14 -159,-77 -207,-110 -11,-7 -55,-40 -61,-43 -31,92 -44,168 -24,266 3,14 6,28 10,42 3,10 11,30 12,39 z"
       id="path4044"
       inkscape:connector-curvature="0"
       style="fill:#87b0de" /><path
       class="fil1"
       d="m 4986,5222 c 2,24 -29,8 -15,-7 11,-11 27,1 24,16 -3,13 -22,16 -33,7 -9,-8 -8,-24 -1,-32 24,-24 58,2 50,31 -8,30 -52,36 -60,16 22,5 34,5 45,-8 11,-13 8,-27 -1,-35 -7,-6 -20,-5 -26,3 -3,4 -4,9 -3,14 6,18 32,-2 13,-7 -2,3 -4,4 0,7 l 7,-5 z m -113,356 c 15,-13 35,-40 47,-56 79,-103 101,-198 104,-203 0,-9 6,-25 7,-36 16,-87 9,-174 -23,-258 -7,3 -9,6 -16,11 -26,20 -79,55 -109,73 -37,23 -96,56 -143,67 4,15 14,34 20,49 32,82 62,163 84,248 4,13 24,101 27,104 z"
       id="path4046"
       inkscape:connector-curvature="0"
       style="fill:#87b0de" /><path
       class="fil3"
       d="m 3914,5381 c -1,-5 -1,0 2,-5 0,0 0,-1 0,-1 7,-14 3,-7 12,-18 0,0 1,-1 1,-2 3,-3 2,-2 5,-6 0,0 0,-1 1,-1 0,0 1,-1 1,-2 l 18,-21 c 7,-9 7,-10 17,-21 8,-9 5,-8 12,-16 l 2,-2 c 7,-7 3,-2 9,-10 l 14,-19 c 2,-2 3,-4 5,-6 l 5,-6 c 26,-32 2,-25 17,-41 2,-2 2,-1 5,-6 0,0 1,-2 1,-2 l 11,-14 c 3,-4 3,-3 5,-8 3,3 2,1 3,7 l 10,-14 c 7,-11 7,-7 11,-14 l 51,-64 c 2,-3 4,-5 6,-7 10,-13 3,-5 8,-18 0,0 1,0 1,0 0,0 1,0 1,0 0,0 1,0 2,0 6,0 -4,2 6,-1 -27,-62 -119,-166 -172,-220 l -28,-28 c 4,18 17,32 23,75 9,56 0,110 -30,160 -13,22 -30,39 -44,59 -44,61 -89,146 -48,220 10,19 37,45 57,51 z"
       id="path4048"
       inkscape:connector-curvature="0"
       style="fill:#8c3336" /><path
       class="fil5"
       d="m 4513,4520 c 0,4 1,7 1,10 0,1 1,4 1,5 1,3 0,2 2,4 2,-3 0,-3 22,8 68,35 84,46 141,83 14,9 36,26 48,35 19,13 16,13 23,19 13,10 26,19 38,30 44,40 70,63 111,107 16,17 92,104 96,119 -15,17 -113,82 -134,94 -20,12 -126,74 -149,82 -6,-6 -22,-40 -27,-50 l -72,-138 c -1,-2 -2,-5 -3,-6 -3,-5 0,-2 -5,-5 2,11 86,197 97,220 6,14 12,30 19,43 14,25 27,62 37,89 23,58 75,216 88,285 4,22 18,87 19,105 l 21,0 -14,-81 c -3,-4 -23,-91 -27,-104 -23,-85 -52,-165 -84,-248 -6,-15 -16,-34 -20,-49 47,-11 105,-45 143,-67 30,-18 83,-53 109,-73 6,-5 8,-8 16,-11 6,-8 40,-30 46,-37 -13,-30 -103,-140 -130,-169 -3,-3 -46,-48 -47,-51 -4,-2 -1,0 -4,-2 l -17,-16 c -20,-21 -75,-67 -101,-89 -27,-22 -60,-45 -90,-64 -16,-10 -31,-19 -48,-28 l -102,-53 c -3,3 -3,-4 -2,5 z"
       id="path4050"
       inkscape:connector-curvature="0"
       style="fill:#c4bdb3" /><path
       class="fil5"
       d="m 3078,4867 c -1,4 -38,50 -45,59 -8,10 -40,53 -42,63 7,5 41,30 46,36 6,3 50,35 61,43 48,32 145,96 207,110 l -39,97 c -24,61 -49,140 -67,203 -4,15 -24,102 -27,107 l -13,76 22,0 c 0,-21 14,-79 19,-103 3,-15 8,-34 12,-49 14,-49 25,-91 42,-142 34,-99 61,-167 108,-265 16,-33 68,-145 78,-173 -8,10 -68,124 -78,144 -4,8 -22,43 -26,47 -26,-11 -55,-27 -78,-41 -79,-45 -140,-83 -209,-137 2,-7 37,-50 45,-59 54,-64 138,-152 210,-206 l 77,-55 48,-30 c 7,-4 60,-35 68,-37 l 0,7 c 3,-3 6,-24 6,-27 l -1,-4 c -8,6 -22,12 -32,17 -62,33 -93,55 -148,93 -10,7 -19,14 -28,21 -74,55 -146,129 -204,197 -4,4 -6,8 -11,12 z"
       id="path4052"
       inkscape:connector-curvature="0"
       style="fill:#c4bdb3" /><path
       class="fil6"
       d="m 3914,5381 c 6,8 53,19 70,21 81,8 157,-25 194,-81 39,-59 30,-135 5,-199 -8,-21 -18,-39 -27,-58 -10,2 0,0 -6,1 0,0 -2,0 -2,0 0,0 -1,0 -1,0 0,0 -1,0 -1,0 -4,13 2,5 -8,18 -2,2 -3,4 -6,7 l -51,64 c -4,7 -4,2 -11,14 l -10,14 c -2,-6 0,-4 -3,-7 -1,5 -1,4 -5,8 l -11,14 c 0,0 -1,2 -1,2 -3,5 -3,4 -5,6 -15,15 9,9 -17,41 l -5,6 c -2,3 -3,4 -5,6 l -14,19 c -6,8 -1,3 -9,10 l -2,2 c -7,8 -4,7 -12,16 -10,11 -10,12 -17,21 l -18,21 c 0,0 -1,1 -1,2 0,0 0,1 -1,1 -3,4 -2,3 -5,6 0,0 -1,1 -1,2 -9,11 -5,4 -12,18 0,0 0,1 0,1 -3,5 -3,1 -2,5 z"
       id="path4054"
       inkscape:connector-curvature="0"
       style="fill:#59171a" /><path
       class="fil4"
       d="m 4364,4092 c 7,6 41,10 51,12 l 30,7 c 7,2 15,2 21,3 24,8 10,1 27,7 0,0 1,0 1,0 0,0 1,0 1,0 2,1 9,1 18,3 l 28,6 c 7,1 4,0 10,2 17,6 15,2 31,6 23,6 22,5 41,9 l 13,4 c 0,0 1,0 1,0 9,2 3,-1 20,4 3,1 1,1 6,1 4,1 6,1 11,1 9,1 3,1 11,3 0,0 1,-1 1,-1 0,1 4,-4 7,-8 31,-39 49,-73 56,-122 1,-9 2,-19 2,-29 0,-7 1,-25 -4,-30 l 0,39 -18,-4 c -13,-4 -17,-3 -30,-6 -3,-1 -4,-1 -7,-2 l -14,-4 c -11,-2 -15,-3 -28,-3 -1,-2 0,-2 -1,-4 l -3,-5 c -30,0 -22,2 -45,-5 -9,-3 -17,-3 -27,-5 -8,-2 -4,-2 -10,-3 -7,-1 -19,-1 -31,-5 l -2,-1 c -4,-1 -59,-13 -60,-12 -1,-3 -2,-4 -2,-8 -5,3 -17,33 -21,40 -21,38 -49,77 -82,106 z"
       id="path4056"
       inkscape:connector-curvature="0"
       style="fill:#b3cfeb" /><path
       class="fil7"
       d="m 4378,4472 c -5,11 -22,24 -30,33 -25,26 -75,57 -111,74 -119,57 -323,54 -443,1 -28,-12 -59,-33 -77,-48 -9,-7 -56,-51 -61,-61 l -7,-5 c -16,4 -94,35 -106,43 l -4,21 c 23,-9 48,-23 72,-30 5,2 13,12 17,16 15,15 37,36 56,48 32,22 48,34 88,54 156,74 329,69 485,-3 15,-7 33,-17 45,-25 8,-5 14,-9 21,-14 7,-5 12,-8 21,-15 3,-3 5,-5 8,-8 4,-3 6,-4 10,-8 7,-6 12,-11 18,-17 9,-9 27,-26 33,-36 10,2 35,12 46,17 l 15,8 -3,-19 c -8,-8 4,-2 -18,-12 -14,-6 -57,-26 -67,-27 -3,5 -6,8 -10,11 z"
       id="path4058"
       inkscape:connector-curvature="0"
       style="fill:#a69994" /><path
       class="fil0"
       d="m 4158,3829 c 6,8 58,27 76,32 66,18 133,15 197,-6 20,-7 64,-26 74,-36 l 3,-3 c 4,-6 6,-21 7,-28 2,-10 6,-22 7,-35 -6,3 -10,6 -16,10 -10,5 -3,3 -18,9 l -19,7 c -87,30 -179,36 -268,7 -11,-4 -32,-13 -41,-15 2,2 1,1 4,3 13,9 46,21 62,26 5,2 7,2 9,6 -6,1 -14,1 -19,3 -31,10 -19,2 -37,5 -7,1 -14,2 -21,4 l -2,4 c -3,5 -1,0 1,7 z"
       id="path4060"
       inkscape:connector-curvature="0"
       style="fill:#ede8d9" /><path
       class="fil4"
       d="m 2431,3608 c 6,7 -4,33 5,42 l 1,-35 c 8,0 39,8 48,10 5,1 9,1 14,2 l 12,4 c 14,3 11,0 27,5 l 12,3 c 11,2 15,4 26,5 l 43,9 c 1,0 7,2 7,2 0,0 6,1 6,1 4,0 2,1 6,-1 -1,-20 -3,-31 0,-53 3,-17 9,-29 13,-44 -5,2 -3,1 -17,-4 -11,-4 -3,1 -20,-3 -17,-4 -31,-6 -48,-8 -8,-1 -11,0 -15,0 -5,0 -8,-4 -8,-4 l -3,-3 c -8,0 -18,0 -25,0 l -5,-1 c -6,-2 -3,-4 -12,-5 l -26,-4 c 0,0 -1,0 -1,0 l -4,-2 c -3,-2 -3,-2 -4,-4 -7,5 -15,31 -18,40 -5,15 -7,32 -12,47 z"
       id="path4062"
       inkscape:connector-curvature="0"
       style="fill:#b3cfeb" /><path
       class="fil1"
       d="m 3356,3257 c 9,-3 2,-1 5,1 l 1,97 c 0,1 0,4 -1,5 -1,-3 0,0 3,-2 13,-18 12,-28 38,-54 41,-42 97,-71 164,-83 14,-3 38,-3 48,-6 l -9,-1 0,-55 -30,-1 c -42,-6 -117,24 -157,45 -18,10 -57,40 -63,54 z"
       id="path4064"
       inkscape:connector-curvature="0"
       style="fill:#87b0de" /><path
       class="fil2"
       d="m 2685,3508 c -5,8 -14,15 -20,24 -5,7 -11,20 -16,26 -4,15 -10,26 -13,44 -3,22 -1,32 0,53 15,22 1,47 76,107 6,5 10,6 16,12 -11,-18 -18,-21 -29,-47 -8,-19 -13,-40 -13,-61 0,-32 9,-57 26,-85 5,-8 12,-15 17,-23 -7,0 -2,2 -4,-3 -2,-5 3,-3 3,-14 l 0,-58 c 0,0 0,-1 0,-1 0,-4 1,-2 -2,-3 -8,2 -15,9 -21,14 -4,3 -16,15 -19,16 z"
       id="path4066"
       inkscape:connector-curvature="0"
       style="fill:#5c87c4" /><path
       class="fil1"
       d="m 4169,3254 8,-2 c -2,4 -1,7 -3,12 -2,5 -4,3 1,9 21,-7 67,-61 221,-57 -4,-9 -1,-45 -1,-57 l -9,-1 c -42,-6 -141,29 -177,59 -17,14 -14,10 -30,26 -4,4 -7,6 -9,11 z"
       id="path4068"
       inkscape:connector-curvature="0"
       style="fill:#87b0de" /><path
       class="fil1"
       d="m 2724,3479 c 3,1 1,-1 2,3 0,0 0,1 0,1 l 0,58 c 0,11 -6,9 -3,14 2,5 -2,3 4,3 13,-12 10,-12 30,-27 43,-33 70,-40 120,-52 3,-1 -2,1 3,-1 4,-1 2,0 4,-2 l -5,-1 0,-37 c -1,-4 0,-2 -1,-4 l -18,0 c -35,-3 -126,29 -136,45 z"
       id="path4070"
       inkscape:connector-curvature="0"
       style="fill:#87b0de" /><path
       class="fil4"
       d="m 3960,3728 c 9,-5 27,-39 33,-49 l 11,-18 c 5,12 25,54 36,60 5,-5 10,-3 18,-3 7,0 11,0 16,-1 l 7,-3 c -6,-9 -15,-17 -22,-26 -21,-26 -41,-57 -54,-87 -7,4 -17,27 -24,38 -15,24 -32,47 -52,67 l -24,22 c -5,4 -6,3 -7,11 1,0 2,-1 2,-1 0,0 1,0 2,-1 0,0 5,-1 5,-1 4,-1 6,-1 11,-1 3,-8 4,-4 4,-7 0,0 0,0 0,0 -1,-2 -2,-1 -2,0 7,0 20,1 26,-3 7,-5 -2,-1 2,-2 0,0 10,-1 12,5 z"
       id="path4072"
       inkscape:connector-curvature="0"
       style="fill:#b3cfeb" /><path
       class="fil4"
       d="m 5182,4043 c 7,1 2,0 8,2 0,0 1,0 1,0 0,0 1,0 1,0 12,5 10,9 18,5 -2,6 -2,5 6,10 1,1 1,1 3,2 l 12,7 c 18,10 8,11 22,11 12,-1 55,-26 66,-32 14,-9 51,-32 57,-41 l -6,0 c 0,-6 4,-5 -14,-14 0,0 -1,0 -1,-1 0,0 -1,0 -1,-1 -2,-1 -2,-1 -4,-2 -2,-1 -5,-3 -7,-4 -8,2 -67,35 -138,50 -4,1 -8,1 -11,2 -3,1 -3,1 -6,1 -4,2 -3,1 -6,3 z"
       id="path4074"
       inkscape:connector-curvature="0"
       style="fill:#b3cfeb" /><path
       class="fil4"
       d="m 2445,3794 c 6,21 30,53 42,70 11,14 46,52 56,57 l 9,-3 c 10,-2 3,0 11,-5 4,-3 21,-6 26,-6 l 2,0 c 1,0 8,3 7,-6 0,-4 0,-2 -3,-4 l -28,-20 c -10,-8 -24,-20 -34,-30 -19,-21 -35,-38 -49,-61 l -5,-7 c -4,-3 1,0 -4,-3 -1,9 -1,3 -11,9 -2,1 -2,1 -4,3 -13,8 -12,5 -16,7 z"
       id="path4076"
       inkscape:connector-curvature="0"
       style="fill:#b3cfeb" /><path
       class="fil2"
       d="m 3322,3315 c -11,33 -14,64 -6,98 5,21 25,68 42,78 -7,-24 -12,-42 -10,-69 1,-11 2,-22 5,-33 3,-11 8,-21 11,-31 -3,1 -4,-1 -3,2 0,-1 1,-4 1,-5 l -1,-97 c -3,-2 4,-4 -5,-1 -5,4 -15,20 -19,26 -6,10 -11,23 -15,32 z"
       id="path4078"
       inkscape:connector-curvature="0"
       style="fill:#5c87c4" /><path
       class="fil0"
       d="m 2731,3250 c -3,6 -1,2 0,3 118,3 277,38 389,73 7,2 8,4 10,0 -8,-12 -162,-55 -188,-62 -46,-11 -114,-26 -165,-30 -25,-2 -21,-2 -39,9 -4,3 -7,4 -8,6 z"
       id="path4080"
       inkscape:connector-curvature="0"
       style="fill:#ede8d9" /><path
       class="fil4"
       d="m 4395,3215 c 17,1 31,3 46,6 16,3 30,8 44,11 -4,-18 -2,-42 -2,-63 8,-1 2,0 4,-2 l -1,-3 c -25,-5 -68,-12 -95,-9 -5,1 -5,1 -7,2 l 9,1 c 0,12 -2,48 1,57 z"
       id="path4082"
       inkscape:connector-curvature="0"
       style="fill:#b3cfeb" /><path
       class="fil1"
       d="m 4870,3588 c 12,-4 25,-12 40,-18 15,-6 29,-10 46,-13 43,-9 71,-7 115,-4 -6,-12 -4,-28 -4,-42 l -12,0 c -26,-4 -90,16 -109,24 -16,7 -31,15 -42,23 -11,8 -26,19 -34,29 z"
       id="path4084"
       inkscape:connector-curvature="0"
       style="fill:#87b0de" /><path
       class="fil0"
       d="m 2685,3508 c 2,-1 15,-13 19,-16 6,-5 13,-12 21,-14 9,-16 101,-47 136,-45 3,-2 6,-2 14,-2 5,0 11,0 16,0 37,0 49,5 82,12 19,4 44,16 57,23 26,14 40,28 43,30 4,2 0,1 6,3 -8,-20 -57,-50 -81,-60 -86,-37 -186,-28 -262,21 -11,7 -30,23 -38,31 l -12,14 c -4,7 -3,3 0,4 z"
       id="path4086"
       inkscape:connector-curvature="0"
       style="fill:#ede8d9" /><path
       class="fil0"
       d="m 4486,3233 c 9,5 23,9 33,14 12,6 21,12 32,17 -2,-16 2,-2 3,-15 l 0,-60 c -15,-8 -45,-20 -67,-23 l 1,3 c -2,2 3,1 -4,2 0,21 -2,44 2,63 z"
       id="path4088"
       inkscape:connector-curvature="0"
       style="fill:#ede8d9" /><path
       class="fil0"
       d="m 5134,3569 c 2,2 35,14 61,33 5,4 3,4 9,6 l -1,-71 c -25,-9 -42,-18 -74,-24 2,10 1,20 1,29 0,13 -1,17 4,26 z"
       id="path4090"
       inkscape:connector-curvature="0"
       style="fill:#ede8d9" /><path
       class="fil0"
       d="m 2445,3794 c 4,-2 3,1 16,-7 2,-2 2,-2 4,-3 10,-6 10,0 11,-9 -10,-19 -18,-36 -26,-58 -4,-11 -16,-57 -13,-68 -9,-9 1,-35 -5,-42 -11,32 -15,62 -11,98 3,27 13,68 25,88 z"
       id="path4092"
       inkscape:connector-curvature="0"
       style="fill:#ede8d9" /><path
       class="fil4"
       d="m 3614,3214 56,2 c 4,-9 1,0 -1,-5 -2,-5 -2,2 0,-3 l 1,-6 0,-29 c -1,-4 0,-3 -3,-4 6,-5 3,1 5,-6 -15,-2 -29,-5 -45,-7 -8,-1 -16,-1 -25,-1 -5,0 -10,0 -14,0 -12,0 -10,1 -11,1 0,0 -1,0 -1,0 l 30,1 0,55 9,1 z"
       id="path4094"
       inkscape:connector-curvature="0"
       style="fill:#b3cfeb" /><path
       class="fil0"
       d="m 3670,3216 c 13,2 27,3 40,7 14,3 25,7 39,10 0,-7 0,-1 1,-4 1,-9 -2,2 -4,-4 0,-6 0,-12 0,-19 0,-10 -1,-10 3,-16 -22,-10 -47,-22 -77,-27 -2,6 1,0 -5,6 3,2 2,1 3,4 l 0,29 -1,6 c -1,5 -1,-2 0,3 2,5 5,-5 1,5 z"
       id="path4096"
       inkscape:connector-curvature="0"
       style="fill:#ede8d9" /><path
       class="fil4 str0"
       d="m 2884,3476 c 11,1 29,-3 43,-3 16,0 31,0 47,2 -1,-6 -1,-12 0,-18 1,-6 2,-8 -3,-13 -32,-7 -45,-11 -82,-12 -5,0 -11,0 -16,0 -7,0 -10,0 -14,2 l 18,0 c 1,2 0,0 1,4 l 0,37 5,1 z"
       id="path4098"
       inkscape:connector-curvature="0"
       style="fill:#b3cfeb;stroke:#ede8d9;stroke-width:3" /><path
       class="fil4"
       d="m 5071,3553 c 10,2 21,4 32,7 11,3 21,7 32,10 -5,-9 -4,-13 -4,-26 0,-10 1,-20 -1,-29 -12,-1 -23,-3 -36,-4 -7,-1 -13,-1 -19,-1 -7,0 -9,0 -16,1 l -3,1 12,0 c 0,14 -2,30 4,42 z"
       id="path4100"
       inkscape:connector-curvature="0"
       style="fill:#b3cfeb" /><path
       class="fil2"
       d="m 4986,5222 -7,5 c -4,-3 -2,-4 0,-7 19,4 -7,25 -13,7 -2,-5 -1,-10 3,-14 6,-8 19,-9 26,-3 9,8 12,22 1,35 -11,13 -22,12 -45,8 9,20 52,14 60,-16 8,-30 -26,-55 -50,-31 -7,7 -8,23 1,32 10,10 30,7 33,-7 3,-16 -13,-28 -24,-16 -15,15 16,31 15,7 z"
       id="path4102"
       inkscape:connector-curvature="0"
       style="fill:#5c87c4" /><path
       class="fil8"
       d="m 3598,3800 c 48,9 82,15 134,8 42,-6 79,-19 107,-35 l -5,1 c -66,20 -94,31 -175,27 -44,-2 -86,-13 -124,-28 -12,-5 -23,-11 -34,-15 22,15 62,34 97,42 z"
       id="path4104"
       inkscape:connector-curvature="0"
       style="fill:#ffffff" /><path
       class="fil2"
       d="m 3092,5260 c -5,-4 6,-4 -10,-2 -37,7 -49,-23 -39,-39 7,-10 23,-15 32,-3 9,13 -5,29 -17,17 -2,-7 0,-10 8,-10 2,4 3,3 0,7 -4,-1 -4,-3 -7,-5 -1,8 2,16 13,9 8,-5 3,-13 1,-19 -16,-2 -24,-2 -24,13 -1,12 7,21 24,17 19,-4 23,-42 -9,-46 -29,-3 -48,37 -18,60 2,2 0,1 3,2 1,1 6,2 9,3 17,5 26,0 35,-6 z"
       id="path4106"
       inkscape:connector-curvature="0"
       style="fill:#5c87c4" /><path
       class="fil2"
       d="m 4135,3308 c 0,0 1,-1 1,-1 0,0 1,-1 1,-1 l 8,-7 c 9,-9 27,-22 30,-27 -5,-6 -3,-4 -1,-9 2,-5 1,-7 3,-12 l -8,2 c -8,5 -31,41 -34,54 z"
       id="path4108"
       inkscape:connector-curvature="0"
       style="fill:#5c87c4" /></g></svg>